<svg xmlns="http://www.w3.org/2000/svg" version="1.1" width="600px" height="600px" viewBox="0 0 200 200" style="overflow:hidden!important;"><g id="svga-group-wrapper"><g id="svga-group-backs-single"><path id="SvgjsPath11804" d="M0 0h200v200H0V0z" fill="#ecf0f1" stroke-width="none" opacity="1"></path></g><g id="svga-group-humanwrap-move" transform="matrix(1,0,0,1,0,0)"><g id="svga-group-humanwrap"><g id="svga-group-hair-back-move" transform="matrix(0.9986295346632303,-0.05233595798588117,0.05233595798588117,0.9986295346632303,-7.97502695413462,5.446017925787402)"><g id="svga-group-hair-back"></g></g><g id="svga-group-humanbody-back"><path id="SvgjsPath11747" d="m170 180.3-27.3-6.9-18-9.9-1.5-28.2H76.8l-1.5 28.2-18 9.9-27.3 6.9-9.1 19.7-3 20h164.2l-3-20z" fill="#f0c7b1" stroke-width="none" opacity="1"></path><path id="SvgjsPath11748" d="m76.8 135.3-1.5 28.2-18 9.9-27.3 6.9-9.1 19.7-3 20h14.6v-20l2.7-17.7 23.8-6.4 24.7-8.3 3.5-32.3z" fill="#d19271" stroke-width="none" opacity="1"></path></g><g id="svga-group-chinshadow-single"><path id="SvgjsPath11743" d="m112.9 157.7 10.7-14.9-.4-7.5H76.8l-.8 14.8 5.5 7.6 6.2 3.5h19z" fill="#c27b55" stroke-width="none" opacity="1"></path></g><g id="svga-group-humanbody-front"><path id="SvgjsPath11749" d="m92.8 168.3 2 7.9 6.9 4.6s-8.5-3-8.7-3.6c-.2-.6-.2-8.9-.2-8.9z" fill="#d19271" stroke-width="none" opacity="1"></path></g><g id="svga-group-clothes-single"><path id="SvgjsPath11633" d="m183.7 220-3.2-20.5-9.6-20.1-27.7-7-17.6-9.7-1-1.3.1 2.1.7 2.9-8.8 10.2-9.4 4.2H92.8l-9.4-4.2-8.8-10.2.7-2.9.1-2.1-1 1.3-17.6 9.7-27.8 7-9.5 20.1-3.2 20.5z" fill="#3c3c3c" stroke-width="none" opacity="1"></path><path id="SvgjsPath11634" d="m72 164.1-1.1 3.8 7.9 11.6 13.9 6.6 9 1.2h-8.9l-14-6.5-8.7-12.5 1.5-4 .4-.2zM29.6 207l3.5-14.5 2.9.7 2.5 9.3-1.6-9.4-3.3-8.9 27.6-5.8 12-6.2 4.2-2.5-2.8-3.2.7-2.9.1-2.1-1 1.3-17.7 9.7-27.7 7-9.6 20.1-3.1 20.4h13.2l.1-13zm13.6 8.7-1.8-6.5.2 10.8h2.1l-.5-4.3zm84.8-51.6 1.1 3.8-7.9 11.6-13.9 6.6-9 1.2h8.9l14-6.5 8.7-12.5-1.5-4-.4-.2zm28.8 51.6 1.8-6.5-.2 10.8h-2.1l.5-4.3z" fill="#2d2d2d" stroke-width="none" opacity="1"></path></g><g id="svga-group-head" transform="matrix(0.9986295346632303,-0.05233595798588117,0.05233595798588117,0.9986295346632303,-7.97502695413462,5.446017925787402)"><g id="svga-group-ears-left-move" transform="matrix(1,0,0,1,0,0)"><g id="svga-group-ears-left"><path id="SvgjsPath11643" d="m66.3 102.2-3-7.2-9.2-8-3.6 12.9 4.7 12.7-.4 5.6 5 2.4 6-11.1z" fill="#f0c7b1" stroke-width="none" opacity="1"></path><path id="SvgjsPath11644" d="m52.5 100 1.9-8.4 3.7 10.6-.8 1 .4 5.9s-3.3-2.1-3.3-2.7.3-6.2.3-6.2l.9-.3-.9-4.5-1.6 6.1.4 3-1-4.5z" fill="#d19271" stroke-width="none" opacity="1"></path><path id="SvgjsPath11645" d="m60.4 111.8-.7-12L54.1 87l9.2 8 3 7.2-.5 7.3-6 11.1-5-2.4 4.8.3z" fill="#e1ac8f" stroke-width="none" opacity="1"></path></g></g><g id="svga-group-ears-right-move" transform="matrix(1,0,0,1,0,0)"><g id="svga-group-ears-right"><path id="SvgjsPath11646" d="m133.7 102.2 3-7.2 9.2-8 3.6 12.9-4.7 12.7.4 5.6-5 2.4-6-11.1z" fill="#f0c7b1" stroke-width="none" opacity="1"></path><path id="SvgjsPath11647" d="m147.5 100-1.9-8.4-3.7 10.6.8 1-.4 5.9s3.3-2.1 3.3-2.7-.3-6.2-.3-6.2l-.9-.3.9-4.5 1.6 6.1-.4 3 1-4.5z" fill="#d19271" stroke-width="none" opacity="1"></path><path id="SvgjsPath11648" d="m139.6 111.8.7-12 5.6-12.8-9.2 8-3 7.2.5 7.3 6 11.1 5-2.4-4.8.3z" fill="#e1ac8f" stroke-width="none" opacity="1"></path></g></g><g id="svga-group-faceshape-wrap"><g id="svga-group-faceshape-single"><path id="SvgjsPath11729" d="M138.1 60c-6.9-11.6-19.7-19.5-19.7-19.5-7.2-1.5-18.4-2.3-18.4-2.3s-11.1.8-18.4 2.3c0 0-12.8 7.9-19.7 19.5 0 0-5.1 14.5-5.3 24.8l1 29.9 26.7 37.4 6.2 3.5h19l6.2-3.5 26.7-37.4 1-29.9c-.2-10.3-5.3-24.8-5.3-24.8z" fill="#f0c7b1" stroke-width="none" opacity="1"></path><path id="SvgjsPath11730" d="m91 153.7-4.9-5.3-22-36.1-1.3-25.6 3.3-23.3L82.5 44l17.4-3.6 18.5.1c-7.2-1.5-18.4-2.3-18.4-2.3s-11.1.8-18.4 2.3c0 0-12.8 7.9-19.7 19.5 0 0-5.1 14.5-5.3 24.8l1 29.9 26.7 37.4 6.2 3.5h19l6.2-3.5-8.6 1.5-16.1.1z" fill="#d19271" stroke-width="none" opacity="1"></path></g></g><g id="svga-group-mouth-single-move" transform="matrix(1,0,0,1,0,-2)"><g id="svga-group-mouth-single"><path id="SvgjsPath11829" d="m84.99 125.5 2.75 3.94 12.37-.68 12.45.84 3.02-3.87-3.73 2.46-6.81-2.5-4.93 1.46-4.57-1.35-7.7 1.93z" fill="#da7c87" stroke-width="none" opacity="1" transform="translate(0 2)"></path><path id="SvgjsPath11830" d="m89.12 131.92 1.15 2.64 10.05 2.86 10.83-3.61-10.89 2.15-9.41-2.31-1.73-1.73z" fill="#d19271" stroke-width="none" opacity="1" transform="translate(0 2)"></path></g></g><g id="svga-group-eyes-left-move" transform="matrix(1,0,0,1,0,1)"><g id="svga-group-eyes-left"><g id="svga-group-eyesback-left"><path id="SvgjsPath11687" d="m91.1 97-4.5-5.3-10.7-.6-7.7 4.2 11.5 3.8z" fill="#ffffff" stroke-width="none" opacity="1"></path></g><g id="svga-group-eyesiriswrapper-left" transform="matrix(1,0,0,1,0,0)"><g id="svga-group-eyesiriscontrol-left" transform="matrix(1,0,0,1,0,0)"><g id="svga-group-eyesiris-left"><path id="SvgjsPath11764" d="m76.8 98-.9-5.5 4.3-3.5 5.2 1.9.9 5.5-4.2 3.5z" fill="#3c8d8e" stroke-width="none" opacity="1"></path><path id="SvgjsPath11765" d="m80.2 89.3 4.9 1.8.9 5.2-4 3.4-4.9-1.8-.9-5.2 4-3.4m-.1-.6-4.5 3.8 1 5.8 5.5 2 4.5-3.8-1-5.8-5.5-2z" fill="#196e6f" stroke-width="none" opacity="1"></path><path id="SvgjsPath11766" d="m78.1 95.4.7-3.1 3-.9 2.3 2.1-.6 3.1-3 .9z" fill="#000000" stroke-width="none" opacity="1"></path><path id="SvgjsPath11767" d="M79.1 91.9h1.8v1.8h-1.8v-1.8z" fill="#ffffff" stroke-width="none" opacity="1"></path><path id="SvgjsPath11768" d="M81.5 96.3h1v1h-1v-1z" fill="#ffffff" stroke-width="none" opacity="1"></path></g></g></g><g id="svga-group-eyesfront-left"><path id="SvgjsPath11695" d="M67.1 89.3v11.9l7.9 8.4h11.2l7.9-8.4V89.3l-7.9-8.4H75l-7.9 8.4zm1.1 6 7.7-4.2 10.7.6 4.5 5.3-11.5 2.1-11.4-3.8z" fill="#f0c7b1" stroke-width="none" opacity="1"></path><path id="SvgjsPath11696" d="m67.7 95.5 8-4.8 11.4.1 6.6 6.7-3 2.9-8.1 3.2 6.5-3.8 1.9-2.7-4.3-5-11.1-.4z" fill="#d19271" stroke-width="none" opacity="1"></path></g></g></g><g id="svga-group-eyes-right-move" transform="matrix(1,0,0,1,0,1)"><g id="svga-group-eyes-right"><g id="svga-group-eyesback-right"><path id="SvgjsPath11688" d="m108.9 97 4.5-5.3 10.7-.6 7.7 4.2-11.5 3.8z" fill="#ffffff" stroke-width="none" opacity="1"></path></g><g id="svga-group-eyesiriswrapper-right" transform="matrix(1,0,0,1,0,0)"><g id="svga-group-eyesiriscontrol-right" transform="matrix(1,0,0,1,0,0)"><g id="svga-group-eyesiris-right"><path id="SvgjsPath11769" d="m114.6 98-.9-5.5 4.2-3.5 5.3 1.9.9 5.5-4.3 3.5z" fill="#3c8d8e" stroke-width="none" opacity="1"></path><path id="SvgjsPath11770" d="m118 89.3 4.9 1.8.9 5.2-4 3.4-4.9-1.8-.9-5.2 4-3.4m-.1-.6-4.5 3.8 1 5.8 5.5 2 4.5-3.8-1-5.8-5.5-2z" fill="#196e6f" stroke-width="none" opacity="1"></path><path id="SvgjsPath11771" d="m115.9 95.4.6-3.1 3-.9 2.4 2.1-.7 3.1-3 .9z" fill="#000000" stroke-width="none" opacity="1"></path><path id="SvgjsPath11772" d="M116.9 91.9h1.8v1.8h-1.8v-1.8z" fill="#ffffff" stroke-width="none" opacity="1"></path><path id="SvgjsPath11773" d="M119.2 96.3h1v1h-1v-1z" fill="#ffffff" stroke-width="none" opacity="1"></path></g></g></g><g id="svga-group-eyesfront-right"><path id="SvgjsPath11697" d="M125 80.8h-11.2l-7.9 8.4v11.9l7.9 8.4H125l7.9-8.4V89.3l-7.9-8.5zm-4.7 18.3L108.9 97l4.5-5.3 10.7-.6 7.7 4.2-11.5 3.8z" fill="#f0c7b1" stroke-width="none" opacity="1"></path><path id="SvgjsPath11700" d="m132.3 95.5-8-4.8-11.4.1-6.6 6.7 3 2.9 8.1 3.2-6.5-3.8-1.9-2.7 4.3-5 11.1-.4z" fill="#d19271" stroke-width="none" opacity="1"></path></g></g></g><g id="svga-group-facehighlight-single"></g><g id="svga-group-eyebrows-left-move" transform="matrix(1,0,0,1,0,0)"><g id="svga-group-eyebrows-left-rotate" transform="matrix(1,1.7453292519943295e-9,-1.7453292519943295e-9,1,1.4695672234665835e-7,-1.3875367699256458e-7)"><g id="svga-group-eyebrows-left"><path id="SvgjsPath11611" d="M92.8 80.6 91.1 86l-2.4 1-14.1-2.3-3.3 1.1-5.1 3.3s3.4-5.3 3.5-5.7c.1-.3 2.5-4.1 2.5-4.1l11.6.6 9 .7z" fill="#2a232b" stroke-width="none" opacity="1"></path><path id="SvgjsPath11612" d="m77.5 85.3-.4-.1-1.2-2.9-3.8-2.8 1.8.5 3.1 1.8c.1 0 .3 2.1.5 3.5zm2.9.4h-.2c.1-.9.1-2.4.1-2.6 0-.2.6-1.5 1.1-2.6l.3.1c-.4 1.6-.9 3.9-1.3 5.1zm4.6.8 5.6-5.6h.6c-.8 1.4-2 3.3-2.2 3.5-.2.1-1.8 1.2-3.3 2.2l-.7-.1zm.1-5.6h.2l-1.5 3.6-1.3 1.6-.4-.1 3-5.1zm-16.1 4c1.4-.5 2.6-1 2.8-1 .2-.1 1.3.5 2.2 1.1l-.8.3c-.6-.1-1-.2-1.1-.3-.1 0-1.8.3-3.5.7.1-.3.3-.5.4-.8z" fill="#1b141c" stroke-width="none" opacity="1"></path></g></g></g><g id="svga-group-eyebrows-right-move" transform="matrix(1,0,0,1,0,0)"><g id="svga-group-eyebrows-right-rotate" transform="matrix(1,1.7453292519943295e-9,-1.7453292519943295e-9,1,1.4713126006427046e-7,-2.1039944897438545e-7)"><g id="svga-group-eyebrows-right"><path id="SvgjsPath11613" d="m107.2 80.6 1.8 5.5 2.4 1 14.1-2.3 3.3 1.1 5.1 3.3s-3.4-5.3-3.5-5.7c-.1-.3-2.5-4.1-2.5-4.1l-11.6.6-9.1.6z" fill="#2a232b" stroke-width="none" opacity="1"></path><path id="SvgjsPath11614" d="m122.5 85.3.4-.1 1.2-2.9 3.8-2.8-1.8.5-3.1 1.8c-.1 0-.3 2.1-.5 3.5zm-2.9.4h.2c-.1-.9-.1-2.4-.1-2.6 0-.2-.6-1.5-1.1-2.6l-.3.1c.4 1.6.9 3.9 1.3 5.1zm-4.6.8-5.6-5.6h-.6c.8 1.4 2 3.3 2.2 3.5.2.1 1.8 1.2 3.3 2.2l.7-.1zm-.1-5.6h-.2l1.5 3.6 1.3 1.6.4-.1-3-5.1zm16.1 4c-1.4-.5-2.6-1-2.8-1-.2-.1-1.3.5-2.2 1.1l.8.3c.6-.1 1-.2 1.1-.3.1 0 1.8.3 3.5.7-.1-.3-.3-.5-.4-.8z" fill="#1b141c" stroke-width="none" opacity="1"></path></g></g></g><g id="svga-group-beardwrap"><g id="svga-group-beard-single-move" transform="matrix(1,0,0,1,0,0)"><g id="svga-group-beard-single"></g></g></g><g id="svga-group-mustache-single-move" transform="matrix(1,0,0,1,0,0)"><g id="svga-group-mustache-single"></g></g><g id="svga-group-nose-single-move" transform="matrix(1,0,0,1,0,0)"><g id="svga-group-nose-single"><path id="SvgjsPath11809" d="m101.27 106.27-5.1.93-3.46-.09-.78 1.36-2.73 7.56 5.1 1.86.49-1.51 1.24.22.09 1.51 3.91.36 3.85-.4v-1.73l1.29-.09.53 1.59 5.24-1.9-2.85-7.47z" fill="#f0c7b1" stroke-width="none" opacity="1" transform="translate(0 1)"></path><path id="SvgjsPath11810" d="m97.36 96.05-2.52 10.77h-2.25l-.66 1.65 1.21-1.03 3.07.2 5.38-1.02 2.12.47-2.8-1.22-5.11.47z" fill="#d19271" stroke-width="none" opacity="1" transform="translate(0 1)"></path><path id="SvgjsPath11811" d="m108.09 108.47 2.27 7.54-4.47 1.28-.55-1.71-1.78.3-.12 1.84-3.25.25h-.36l-3.24-.25-.12-1.84-1.78-.3-.55 1.71-4.47-1.28 2.26-7.54-3.43 7.44 6.01 2.66.36-1.71.92.13-.06 1.47 4.1.37h.36l4.11-.37-.07-1.47.92-.13.37 1.71 6-2.66z" fill="#d19271" stroke-width="none" opacity="1" transform="translate(0 1)"></path><path id="SvgjsPath11812" d="M96.57 109.26c.33-.11 6.43-.78 6.43-.78l1.77 1.77-1.66 4.99-6.2-.66-.34-5.32z" fill="#f8d5c3" stroke-width="none" opacity="1" transform="translate(0 1)"></path></g></g><g id="svga-group-hair-front"><path id="SvgjsPath11851" d="m99.5 63.6-9.3-2.3-5-1.4-5.1-1.7-7.3-1.8-6.5 8.8-3 18.8-3 9.3-4.2-5.7-.4-10.7 1.2-15.1 7.3-12.1-1.1-6.2 3.9-9.7.4-6.5 3 7.7-1.2-7.3 3.6-7.2v4.6l1.8 3.6-.4-4 4.5 5.3 6.8 2-5.8-3.9-1.6-4.4 4.6 3 4 .4-2.8-3.6 5.9 3 21.1 2.6 4.9 3.5 10.3 4.8 1.8 3.2 4.6 4.3.8 4.2 8.5 6.8 2.4 19.2-.2 13.7-5.2 6.3-2.3-9.1-2-23.6L125 55l-14.8 6.1z" fill="#504543" stroke-width="none" opacity="1"></path><path id="SvgjsPath11852" d="m99.5 63.6-18.2-9L70.4 35l-1.2-7.3 3.6-7.3V25l1.8 3.6 10.5 9.5 11.4 7.7 1 14.1 2 3.7zm-26.7-7.2-8.6-6.7-1.1-6.2 3.9-9.7 5.3 15.7 14.5 10.7-14-3.8zm5.3-32.7 1.6 4.4 5.8 3.8 20.4 5.9 4.9 10.9-4.2 11.9-7.2 2.8 10.7-2.5s9.7-17.1 9.7-17.9-6.7-10-6.7-10l-28.2-4.2-4.9-2-1.9-3.1zm55.2 25.4L125 55l-10.1 4 10.5-9.2 2.4-9.2 4.6 4.2.9 4.3zm1.2 13.3 3.4-2.2 3.9-4.3-3.9 12.8-2.6 4.4-.8-10.7zm-68.2 2.8-3 18.8-6.5-22.2 6-9.7 3.5 13.1z" fill="#483b39" stroke-width="none" opacity="1"></path><path id="SvgjsPath11853" d="m79.3 31 25.5 7.1 6.1 10.8-4.3 11.9-6.7-17.1-15.1-7.5-5.5-5.2zm35.2 26.2 11-7.3 2.4-9.2-1.8-3.2-10.3-4.8 7.2 8.7-.6 5.2-7.9 10.6z" fill="#584f4e" stroke-width="none" opacity="1"></path></g><g id="svga-group-glasses-single-move" transform="matrix(1,0,0,1,0,0)"><g id="svga-group-glasses-single"></g></g></g></g></g><rect id="svga-credit-rect" width="200" height="15" x="0" y="185" fill="#ecf0f1" opacity="0.5" style="display: none;"></rect><text id="svga-credit-text" font-family="Avenir Next, Roboto, Helvetica, Arial, sans-serif" font-size="10px" text-anchor="start" font-weight="400" size="10px" anchor="start" weight="400" fill="#333333" x="33.40447998046875" y="182.60824704170227" style="display: none;"><tspan id="SvgjsTspan11605" dy="13" x="33.40447998046875">Created on AvatarMaker.com</tspan></text></g><defs id="SvgjsDefs11552"></defs></svg>